<svg width="120" height="29" viewBox="0 0 1729 419" fill="none" xmlns="http://www.w3.org/2000/svg" style="display: block; height: 28px; width: auto;">
    <g clip-path="url(#clip0_3906_3)">
        <path d="M1548.71 0.216708C1596.15 -3.07725 1650.86 6.02063 1689.42 35.7216C1730.28 67.2005 1729.16 97.5185 1729.14 143.772L1729.05 214.434L1729 279.721C1729.03 293.059 1729.64 314.245 1727.33 326.939C1724.5 342.026 1717.97 356.176 1708.33 368.124C1678.66 405.016 1631.13 417.898 1586.16 422.508C1515.46 425.783 1416.1 406.257 1405.78 318.708C1404.39 306.935 1405.26 291.766 1405.28 279.752L1405.41 213.35L1405.29 144.142C1405.27 128.992 1404.18 108.278 1407.26 93.7255C1420.63 30.4975 1492.74 4.83671 1548.71 0.216708ZM1636.59 102.061C1630.66 64.5634 1587.07 61.4456 1558.76 62.0556C1541.67 63.1136 1525.24 65.9097 1511.41 76.9306C1493.25 91.3976 1496.63 115.995 1496.63 136.819L1496.68 199.552L1496.66 275.051C1496.62 298.596 1491.75 329.229 1511.91 345.289C1531.19 360.641 1555.2 360.813 1578.5 360.332C1596.89 358.282 1615.23 354.366 1627.54 339.283C1640.33 323.623 1637.26 299.596 1637.25 280.447L1637.18 210.961L1637.28 140.188C1637.28 128.741 1638.32 113.006 1636.59 102.061Z" fill="#ffffff"></path>
        <path d="M512.483 0.087956C580.031 -3.25404 681.115 22.4145 685.085 107.025C686.725 141.944 685.155 179.595 685.235 214.845L685.436 280.943C685.486 295.324 686.685 316.892 683.436 330.556C668.006 395.396 595.309 419.984 537.781 422.946C470.309 425.404 368.229 402.605 363.195 316.443C361.271 283.498 363.166 246.662 363.128 213.226L362.958 144.5C362.92 129.223 361.644 105.685 365.212 91.2852C381.058 27.3322 455.514 2.65396 512.483 0.087956ZM593.893 103.483C588.574 63.9045 543.454 61.215 513.939 62.044C495.18 63.583 476.716 66.7786 463.698 81.7833C451.13 96.2693 454.318 119.751 454.326 137.888L454.386 206.963L454.306 278.082C454.283 288.468 453.726 308.263 454.742 318.028C455.883 329.434 461.636 339.88 470.667 346.94C487.89 360.488 514.488 361.664 535.622 360.308C553.707 358.521 571.934 354.636 584.233 340.042C597.283 324.555 594.355 302.348 594.368 283.308L594.386 216.86L594.429 144.524C594.448 132.053 595.5 115.434 593.893 103.483Z" fill="#ffffff"></path>
        <path d="M1011.05 4.42969C1039 4.63869 1066.93 4.67767 1094.88 4.54767C1124.73 60.6427 1157.94 116.861 1188.23 173.37C1196.67 154.188 1212.34 127.305 1222.73 108.455L1279.55 4.53467C1307.1 5.07667 1335.77 4.6837 1363.36 4.4577C1362.52 57.1517 1363.3 112.057 1363.3 164.914L1363.47 418.351C1337.1 417.359 1300.58 417.798 1274.11 418.515L1274.32 280.891C1273.98 243.469 1274.2 206.045 1274.99 168.63C1263.49 193.325 1244.58 225.487 1230.91 249.749C1218.16 272.362 1201.73 303.835 1187.68 324.802C1181.51 316.173 1171.33 297.154 1165.56 287.191L1123.56 214.069C1115.82 200.528 1106.83 183.781 1098.41 170.909C1099.66 252.414 1096.68 337.861 1099.06 418.496C1072.83 417.454 1036.95 418.059 1010.65 418.669C1011.12 369.799 1011.24 320.926 1011.03 272.054L1011.05 4.42969Z" fill="#ffffff"></path>
        <path d="M77.1602 4.42181C164.093 5.28181 253.842 4.97381 340.813 4.38281C340.274 29.4168 340.575 56.1518 340.725 81.2198C283.962 79.7698 225.553 81.9698 168.5 80.7528C170.236 104.898 168.913 150.789 168.746 175.872C217.534 174.913 267.638 176.007 316.672 175.526C316.686 196.544 316.089 220.548 317.252 241.256C290.623 240.303 260.053 241.005 233.125 240.984C211.555 241.181 189.984 241.11 168.416 240.773C171.092 297.964 166.554 361.654 169.045 418.55C142.447 417.319 104.052 418.083 77.0742 418.573L77.4062 229.127C66.1792 222.654 6.45119 188.444 0.700187 181.054C0.351187 178.422 0.141174 178.35 1.34917 175.902C6.69217 174.871 21.6312 175.373 27.8232 175.42L77.2672 175.845C76.5522 119.259 77.1982 61.1498 77.1602 4.42181Z" fill="#ffffff"></path>
        <path d="M726.645 4.49219C757.215 4.72019 787.785 4.75519 818.355 4.59619L818.315 214.101C818.325 255.23 818.965 298.413 817.935 339.402C873.465 338.381 929.775 340.141 985.415 339.02C985.235 364.717 985.855 392.803 985.025 418.263C976.355 417.673 962.355 418.08 953.405 418.079L893.645 418.08C837.935 417.919 782.225 418.066 726.515 418.521C727.945 281.591 726.835 141.563 726.645 4.49219Z" fill="#ffffff"></path>
    </g>
    <defs>
        <clipPath id="clip0_3906_3">
            <rect width="1729" height="419" fill="white"></rect>
        </clipPath>
    </defs>
</svg>